<?xml version="1.0" encoding="UTF-8"?>
<svg xmlns="http://www.w3.org/2000/svg" xmlns:xlink="http://www.w3.org/1999/xlink" width="200px" height="125px" viewBox="0 0 200 125" version="1.1">
<defs>
<clipPath id="clip1">
  <path d="M 0.117188 30 L 199.636719 30 L 199.636719 95 L 0.117188 95 Z M 0.117188 30 "/>
</clipPath>
<clipPath id="clip2">
  <path d="M 0.117188 55.660156 L 179.273438 55.660156 L 179.273438 69.441406 L 0.117188 69.441406 Z M 0.117188 55.660156 "/>
</clipPath>
<clipPath id="clip3">
  <path d="M 181.277344 53.027344 L 199.636719 53.027344 L 199.636719 72.070312 L 181.277344 72.070312 Z M 181.277344 53.027344 "/>
</clipPath>
</defs>
<g id="surface1">
<g clip-path="url(#clip1)" clip-rule="nonzero">
<path style=" stroke:none;fill-rule:nonzero;fill:rgb(13.72549%,20.784314%,39.607843%);fill-opacity:1;" d="M 22.046875 94.488281 L 15.210938 74.082031 L 29.84375 74.082031 L 30.050781 74.8125 L 30.253906 74.082031 L 44.1875 74.082031 L 37.992188 94.488281 Z M 0.640625 30.613281 L 17.53125 30.613281 L 23.3125 51.019531 L 7.480469 51.019531 Z M 41.824219 32.515625 L 52.070312 32.515625 L 57.886719 51.019531 L 36.675781 51.019531 Z M 65.324219 74.691406 L 65.492188 74.082031 L 80.117188 74.082031 L 73.328125 94.488281 L 57.347656 94.488281 L 50.847656 74.082031 L 65.132812 74.082031 Z M 77.371094 30.613281 L 94.585938 30.613281 L 87.792969 51.019531 L 71.792969 51.019531 Z M 95.683594 43.789062 L 95.683594 30.613281 L 148.101562 30.613281 L 148.101562 43.789062 L 129.5625 43.789062 L 129.5625 51.019531 L 114.378906 51.019531 L 114.378906 43.789062 Z M 129.5625 94.488281 L 114.378906 94.488281 L 114.378906 74.082031 L 129.5625 74.082031 Z M 199.117188 94.488281 L 156.546875 94.488281 L 156.546875 74.082031 L 171.730469 74.082031 L 171.730469 81.160156 L 199.117188 81.160156 Z M 156.546875 30.613281 L 199.117188 30.613281 L 199.117188 43.789062 L 171.730469 43.789062 L 171.730469 51.019531 L 156.546875 51.019531 Z M 156.546875 30.613281 "/>
</g>
<g clip-path="url(#clip2)" clip-rule="nonzero">
<path style=" stroke:none;fill-rule:nonzero;fill:rgb(13.72549%,20.784314%,39.607843%);fill-opacity:1;" d="M 3.257812 65.878906 L 0.136719 56.5625 L 2.597656 56.5625 L 4.683594 63.921875 L 4.171875 63.921875 L 6.140625 56.839844 L 7.636719 56.839844 L 9.808594 63.753906 L 9.359375 63.753906 L 11.324219 56.5625 L 13.835938 56.5625 L 10.734375 65.878906 L 8.40625 65.878906 L 6.910156 61.1875 L 7.007812 61.1875 L 5.582031 65.878906 Z M 20.808594 65.878906 L 18.878906 65.878906 L 18.59375 64.050781 L 18.59375 61.492188 C 18.59375 61.148438 18.53125 60.882812 18.40625 60.691406 C 18.285156 60.503906 18.019531 60.410156 17.613281 60.410156 C 17.375 60.410156 17.179688 60.445312 17.027344 60.515625 C 16.878906 60.585938 16.765625 60.679688 16.695312 60.800781 C 16.625 60.917969 16.589844 61.046875 16.589844 61.1875 L 14.195312 61.1875 C 14.195312 60.648438 14.320312 60.207031 14.574219 59.855469 C 14.828125 59.507812 15.210938 59.246094 15.71875 59.074219 C 16.226562 58.902344 16.855469 58.816406 17.613281 58.816406 C 18.273438 58.816406 18.839844 58.917969 19.316406 59.121094 C 19.796875 59.328125 20.164062 59.632812 20.421875 60.039062 C 20.679688 60.449219 20.808594 60.960938 20.808594 61.574219 Z M 16.734375 66.101562 C 16.125 66.101562 15.609375 65.996094 15.195312 65.792969 C 14.777344 65.585938 14.460938 65.304688 14.25 64.953125 C 14.039062 64.601562 13.933594 64.214844 13.933594 63.789062 C 13.933594 63.386719 14.042969 63.039062 14.265625 62.742188 C 14.484375 62.449219 14.8125 62.222656 15.25 62.0625 C 15.683594 61.898438 16.222656 61.816406 16.859375 61.816406 C 17.246094 61.816406 17.589844 61.835938 17.886719 61.878906 C 18.183594 61.921875 18.488281 61.972656 18.804688 62.03125 L 18.804688 63.28125 C 18.574219 63.230469 18.332031 63.191406 18.085938 63.164062 C 17.839844 63.136719 17.597656 63.121094 17.363281 63.121094 C 17.035156 63.121094 16.777344 63.175781 16.585938 63.28125 C 16.394531 63.382812 16.296875 63.550781 16.296875 63.789062 C 16.296875 63.960938 16.382812 64.109375 16.554688 64.238281 C 16.726562 64.363281 16.996094 64.425781 17.363281 64.425781 C 17.675781 64.425781 17.925781 64.363281 18.101562 64.238281 C 18.285156 64.113281 18.410156 63.957031 18.484375 63.769531 C 18.558594 63.578125 18.59375 63.390625 18.59375 63.203125 L 19.113281 63.203125 C 19.113281 63.730469 19.03125 64.214844 18.863281 64.65625 C 18.699219 65.097656 18.441406 65.449219 18.089844 65.707031 C 17.738281 65.96875 17.285156 66.101562 16.734375 66.101562 Z M 25.214844 65.878906 L 23 65.878906 L 23 56.300781 L 25.214844 56.300781 Z M 29.78125 65.878906 L 27.566406 65.878906 L 27.566406 56.300781 L 29.78125 56.300781 Z M 34.859375 66.101562 C 34.289062 66.101562 33.75 65.953125 33.246094 65.65625 C 32.746094 65.359375 32.339844 64.9375 32.027344 64.382812 C 31.714844 63.835938 31.558594 63.183594 31.558594 62.425781 C 31.558594 61.671875 31.714844 61.027344 32.023438 60.488281 C 32.332031 59.949219 32.738281 59.535156 33.242188 59.246094 C 33.742188 58.960938 34.285156 58.816406 34.859375 58.816406 C 35.433594 58.816406 35.929688 58.933594 36.355469 59.160156 C 36.78125 59.390625 37.121094 59.699219 37.382812 60.089844 C 37.640625 60.476562 37.8125 60.917969 37.894531 61.40625 C 37.976562 61.890625 37.957031 62.394531 37.839844 62.914062 L 33.3125 62.914062 L 33.3125 61.789062 L 36.222656 61.789062 L 35.902344 61.996094 C 35.917969 61.835938 35.914062 61.671875 35.886719 61.503906 C 35.863281 61.339844 35.8125 61.183594 35.738281 61.042969 C 35.664062 60.902344 35.558594 60.789062 35.421875 60.703125 C 35.289062 60.617188 35.113281 60.574219 34.902344 60.574219 C 34.667969 60.574219 34.460938 60.632812 34.289062 60.746094 C 34.117188 60.855469 33.984375 61.023438 33.886719 61.238281 C 33.792969 61.453125 33.746094 61.714844 33.746094 62.023438 L 33.746094 62.898438 C 33.746094 63.191406 33.785156 63.445312 33.871094 63.65625 C 33.953125 63.871094 34.078125 64.035156 34.242188 64.152344 C 34.40625 64.269531 34.613281 64.328125 34.859375 64.328125 C 35.0625 64.328125 35.242188 64.289062 35.390625 64.203125 C 35.546875 64.121094 35.652344 63.988281 35.710938 63.808594 L 37.910156 63.808594 C 37.84375 64.234375 37.671875 64.621094 37.402344 64.96875 C 37.132812 65.316406 36.78125 65.589844 36.351562 65.796875 C 35.917969 66 35.421875 66.101562 34.859375 66.101562 Z M 42.226562 66.101562 C 41.792969 66.101562 41.390625 66.023438 41.011719 65.863281 C 40.636719 65.707031 40.335938 65.460938 40.105469 65.125 C 39.878906 64.789062 39.765625 64.355469 39.765625 63.828125 L 39.765625 57.3125 L 41.992188 57.3125 L 41.992188 63.746094 C 41.992188 64.164062 42.199219 64.371094 42.605469 64.371094 C 42.738281 64.371094 42.875 64.355469 43.019531 64.328125 C 43.164062 64.296875 43.335938 64.246094 43.527344 64.175781 L 43.851562 65.726562 C 43.570312 65.828125 43.304688 65.914062 43.046875 65.988281 C 42.789062 66.0625 42.519531 66.101562 42.226562 66.101562 Z M 43.542969 60.476562 L 38.953125 60.476562 L 38.953125 59.039062 L 43.542969 59.039062 Z M 51.304688 58.484375 L 48.078125 58.484375 L 48.078125 56.5625 L 55.726562 56.5625 L 55.726562 58.484375 L 52.519531 58.484375 L 53.019531 57.984375 L 53.019531 65.878906 L 50.804688 65.878906 L 50.804688 57.984375 Z M 57.835938 65.878906 L 55.621094 65.878906 L 55.621094 59 L 57.835938 59 Z M 57.835938 62.964844 L 57.363281 62.964844 C 57.363281 62.03125 57.480469 61.269531 57.71875 60.671875 C 57.953125 60.074219 58.25 59.632812 58.609375 59.34375 C 58.96875 59.058594 59.335938 58.914062 59.710938 58.914062 C 59.785156 58.914062 59.859375 58.917969 59.933594 58.925781 C 60.003906 58.933594 60.074219 58.945312 60.140625 58.957031 L 60.160156 61.191406 C 60.046875 61.179688 59.929688 61.167969 59.808594 61.160156 C 59.6875 61.152344 59.574219 61.148438 59.46875 61.148438 C 59.144531 61.148438 58.859375 61.210938 58.613281 61.332031 C 58.363281 61.449219 58.175781 61.644531 58.039062 61.90625 C 57.902344 62.171875 57.835938 62.523438 57.835938 62.964844 Z M 67.902344 65.878906 L 65.972656 65.878906 L 65.6875 64.050781 L 65.6875 61.492188 C 65.6875 61.148438 65.625 60.882812 65.5 60.691406 C 65.375 60.503906 65.109375 60.410156 64.703125 60.410156 C 64.464844 60.410156 64.269531 60.445312 64.121094 60.515625 C 63.96875 60.585938 63.859375 60.679688 63.789062 60.800781 C 63.714844 60.917969 63.679688 61.046875 63.679688 61.1875 L 61.285156 61.1875 C 61.285156 60.648438 61.414062 60.207031 61.667969 59.855469 C 61.921875 59.507812 62.300781 59.246094 62.808594 59.074219 C 63.316406 58.902344 63.949219 58.816406 64.703125 58.816406 C 65.363281 58.816406 65.933594 58.917969 66.410156 59.121094 C 66.886719 59.328125 67.253906 59.632812 67.511719 60.039062 C 67.769531 60.449219 67.902344 60.960938 67.902344 61.574219 Z M 63.828125 66.101562 C 63.21875 66.101562 62.703125 65.996094 62.289062 65.792969 C 61.867188 65.585938 61.554688 65.304688 61.339844 64.953125 C 61.128906 64.601562 61.023438 64.214844 61.023438 63.789062 C 61.023438 63.386719 61.132812 63.039062 61.355469 62.742188 C 61.578125 62.449219 61.90625 62.222656 62.339844 62.0625 C 62.777344 61.898438 63.316406 61.816406 63.949219 61.816406 C 64.339844 61.816406 64.679688 61.835938 64.976562 61.878906 C 65.273438 61.921875 65.582031 61.972656 65.894531 62.03125 L 65.894531 63.28125 C 65.664062 63.230469 65.425781 63.191406 65.175781 63.164062 C 64.933594 63.136719 64.691406 63.121094 64.453125 63.121094 C 64.128906 63.121094 63.867188 63.175781 63.675781 63.28125 C 63.484375 63.382812 63.390625 63.550781 63.390625 63.789062 C 63.390625 63.960938 63.476562 64.109375 63.648438 64.238281 C 63.816406 64.363281 64.085938 64.425781 64.453125 64.425781 C 64.769531 64.425781 65.015625 64.363281 65.195312 64.238281 C 65.375 64.113281 65.5 63.957031 65.574219 63.769531 C 65.648438 63.578125 65.6875 63.390625 65.6875 63.203125 L 66.207031 63.203125 C 66.207031 63.730469 66.125 64.214844 65.957031 64.65625 C 65.792969 65.097656 65.535156 65.449219 65.183594 65.707031 C 64.832031 65.96875 64.378906 66.101562 63.828125 66.101562 Z M 76.835938 65.878906 L 74.605469 65.878906 L 74.605469 61.894531 C 74.605469 61.53125 74.519531 61.265625 74.34375 61.089844 C 74.167969 60.917969 73.957031 60.832031 73.707031 60.832031 C 73.453125 60.832031 73.21875 60.902344 73.007812 61.046875 C 72.792969 61.191406 72.625 61.421875 72.496094 61.738281 C 72.371094 62.054688 72.308594 62.472656 72.308594 62.996094 L 71.636719 62.996094 C 71.636719 62.015625 71.753906 61.21875 71.984375 60.601562 C 72.21875 59.988281 72.539062 59.535156 72.941406 59.246094 C 73.34375 58.960938 73.804688 58.816406 74.316406 58.816406 C 74.902344 58.816406 75.378906 58.949219 75.75 59.214844 C 76.121094 59.476562 76.394531 59.839844 76.570312 60.304688 C 76.746094 60.769531 76.835938 61.296875 76.835938 61.894531 Z M 72.308594 65.878906 L 70.09375 65.878906 L 70.09375 59.039062 L 72.046875 59.039062 L 72.308594 60.171875 Z M 81.632812 66.101562 C 80.984375 66.101562 80.410156 66.011719 79.910156 65.839844 C 79.414062 65.667969 79.023438 65.40625 78.746094 65.054688 C 78.464844 64.707031 78.328125 64.265625 78.335938 63.730469 L 80.332031 63.730469 C 80.339844 63.972656 80.4375 64.140625 80.613281 64.230469 C 80.792969 64.324219 81.03125 64.371094 81.335938 64.371094 C 81.523438 64.371094 81.675781 64.347656 81.792969 64.300781 C 81.914062 64.253906 82.003906 64.195312 82.0625 64.117188 C 82.125 64.042969 82.152344 63.960938 82.152344 63.871094 C 82.152344 63.757812 82.113281 63.664062 82.027344 63.597656 C 81.945312 63.527344 81.816406 63.457031 81.640625 63.386719 L 79.988281 62.742188 C 79.496094 62.539062 79.121094 62.277344 78.855469 61.964844 C 78.589844 61.652344 78.457031 61.28125 78.457031 60.851562 C 78.457031 60.246094 78.738281 59.753906 79.292969 59.382812 C 79.855469 59.003906 80.617188 58.816406 81.585938 58.816406 C 82.492188 58.816406 83.191406 59.03125 83.679688 59.457031 C 84.171875 59.882812 84.417969 60.421875 84.421875 61.082031 L 82.394531 61.082031 C 82.394531 60.933594 82.332031 60.804688 82.207031 60.699219 C 82.082031 60.589844 81.875 60.535156 81.585938 60.535156 C 81.347656 60.535156 81.15625 60.574219 81.019531 60.652344 C 80.878906 60.730469 80.8125 60.835938 80.8125 60.964844 C 80.8125 61.140625 80.957031 61.277344 81.246094 61.378906 L 83.128906 62.136719 C 83.59375 62.320312 83.960938 62.550781 84.230469 62.828125 C 84.496094 63.109375 84.628906 63.457031 84.628906 63.871094 C 84.628906 64.25 84.5 64.609375 84.242188 64.949219 C 83.976562 65.292969 83.621094 65.566406 83.167969 65.78125 C 82.71875 65.992188 82.207031 66.101562 81.632812 66.101562 Z M 92.726562 65.878906 L 90.792969 65.878906 L 90.511719 64.050781 L 90.511719 61.492188 C 90.511719 61.148438 90.449219 60.882812 90.324219 60.691406 C 90.199219 60.503906 89.933594 60.410156 89.527344 60.410156 C 89.289062 60.410156 89.09375 60.445312 88.941406 60.515625 C 88.792969 60.585938 88.683594 60.679688 88.609375 60.800781 C 88.539062 60.917969 88.503906 61.046875 88.503906 61.1875 L 86.109375 61.1875 C 86.109375 60.648438 86.238281 60.207031 86.492188 59.855469 C 86.746094 59.507812 87.125 59.246094 87.632812 59.074219 C 88.140625 58.902344 88.773438 58.816406 89.527344 58.816406 C 90.1875 58.816406 90.757812 58.917969 91.234375 59.121094 C 91.710938 59.328125 92.082031 59.632812 92.339844 60.039062 C 92.597656 60.449219 92.726562 60.960938 92.726562 61.574219 Z M 88.648438 66.101562 C 88.039062 66.101562 87.527344 65.996094 87.109375 65.792969 C 86.695312 65.585938 86.378906 65.304688 86.167969 64.953125 C 85.953125 64.601562 85.847656 64.214844 85.847656 63.789062 C 85.847656 63.386719 85.960938 63.039062 86.179688 62.742188 C 86.402344 62.449219 86.730469 62.222656 87.164062 62.0625 C 87.601562 61.898438 88.136719 61.816406 88.773438 61.816406 C 89.160156 61.816406 89.503906 61.835938 89.800781 61.878906 C 90.097656 61.921875 90.40625 61.972656 90.71875 62.03125 L 90.71875 63.28125 C 90.488281 63.230469 90.25 63.191406 90.003906 63.164062 C 89.753906 63.136719 89.515625 63.121094 89.28125 63.121094 C 88.953125 63.121094 88.691406 63.175781 88.5 63.28125 C 88.308594 63.382812 88.214844 63.550781 88.214844 63.789062 C 88.214844 63.960938 88.300781 64.109375 88.46875 64.238281 C 88.640625 64.363281 88.910156 64.425781 89.28125 64.425781 C 89.59375 64.425781 89.839844 64.363281 90.019531 64.238281 C 90.199219 64.113281 90.328125 63.957031 90.402344 63.769531 C 90.476562 63.578125 90.511719 63.390625 90.511719 63.203125 L 91.03125 63.203125 C 91.03125 63.730469 90.945312 64.214844 90.78125 64.65625 C 90.613281 65.097656 90.355469 65.449219 90.003906 65.707031 C 89.65625 65.96875 89.203125 66.101562 88.648438 66.101562 Z M 97.699219 66.101562 C 97.101562 66.101562 96.550781 65.949219 96.042969 65.648438 C 95.53125 65.347656 95.121094 64.925781 94.808594 64.378906 C 94.5 63.832031 94.34375 63.195312 94.34375 62.464844 C 94.34375 61.660156 94.5 60.992188 94.808594 60.453125 C 95.121094 59.914062 95.53125 59.507812 96.042969 59.230469 C 96.550781 58.957031 97.101562 58.816406 97.699219 58.816406 C 98.199219 58.816406 98.640625 58.902344 99.015625 59.074219 C 99.394531 59.246094 99.707031 59.46875 99.953125 59.746094 C 100.203125 60.023438 100.390625 60.332031 100.511719 60.664062 C 100.632812 60.996094 100.695312 61.324219 100.695312 61.644531 L 98.480469 61.621094 C 98.449219 61.421875 98.367188 61.242188 98.242188 61.078125 C 98.113281 60.914062 97.929688 60.832031 97.683594 60.832031 C 97.492188 60.832031 97.308594 60.878906 97.132812 60.980469 C 96.960938 61.082031 96.820312 61.246094 96.714844 61.484375 C 96.605469 61.71875 96.550781 62.046875 96.550781 62.464844 C 96.550781 62.871094 96.605469 63.191406 96.714844 63.425781 C 96.820312 63.664062 96.960938 63.832031 97.132812 63.925781 C 97.308594 64.023438 97.492188 64.074219 97.683594 64.074219 C 98 64.074219 98.210938 64 98.320312 63.855469 C 98.425781 63.707031 98.480469 63.523438 98.480469 63.300781 L 100.695312 63.300781 C 100.695312 63.792969 100.585938 64.25 100.371094 64.675781 C 100.152344 65.105469 99.824219 65.449219 99.382812 65.707031 C 98.945312 65.96875 98.382812 66.101562 97.699219 66.101562 Z M 104.957031 66.101562 C 104.523438 66.101562 104.117188 66.023438 103.742188 65.863281 C 103.367188 65.707031 103.066406 65.460938 102.835938 65.125 C 102.605469 64.789062 102.492188 64.355469 102.492188 63.828125 L 102.492188 57.3125 L 104.71875 57.3125 L 104.71875 63.746094 C 104.71875 64.164062 104.925781 64.371094 105.335938 64.371094 C 105.46875 64.371094 105.605469 64.355469 105.746094 64.328125 C 105.894531 64.296875 106.0625 64.246094 106.257812 64.175781 L 106.582031 65.726562 C 106.300781 65.828125 106.03125 65.914062 105.773438 65.988281 C 105.519531 66.0625 105.246094 66.101562 104.957031 66.101562 Z M 106.269531 60.476562 L 101.683594 60.476562 L 101.683594 59.039062 L 106.269531 59.039062 Z M 109.488281 58.160156 C 109.066406 58.160156 108.742188 58.050781 108.515625 57.835938 C 108.285156 57.621094 108.171875 57.316406 108.171875 56.925781 C 108.171875 56.539062 108.285156 56.234375 108.515625 56.003906 C 108.742188 55.777344 109.066406 55.660156 109.488281 55.660156 C 109.890625 55.660156 110.214844 55.777344 110.449219 56.003906 C 110.683594 56.234375 110.800781 56.539062 110.800781 56.925781 C 110.800781 57.316406 110.683594 57.621094 110.449219 57.835938 C 110.214844 58.050781 109.890625 58.160156 109.488281 58.160156 Z M 110.59375 65.878906 L 108.378906 65.878906 L 108.378906 59 L 110.59375 59 Z M 116.046875 66.101562 C 115.414062 66.101562 114.835938 65.96875 114.304688 65.707031 C 113.777344 65.449219 113.355469 65.050781 113.039062 64.515625 C 112.722656 63.980469 112.566406 63.300781 112.566406 62.476562 C 112.566406 61.625 112.722656 60.929688 113.039062 60.394531 C 113.355469 59.859375 113.777344 59.460938 114.304688 59.203125 C 114.835938 58.945312 115.414062 58.816406 116.046875 58.816406 C 116.664062 58.816406 117.234375 58.945312 117.757812 59.203125 C 118.277344 59.460938 118.695312 59.859375 119.011719 60.394531 C 119.328125 60.929688 119.484375 61.625 119.484375 62.476562 C 119.484375 63.300781 119.328125 63.980469 119.011719 64.515625 C 118.695312 65.050781 118.277344 65.449219 117.757812 65.707031 C 117.234375 65.96875 116.664062 66.101562 116.046875 66.101562 Z M 115.960938 64.164062 C 116.175781 64.164062 116.382812 64.105469 116.582031 63.996094 C 116.785156 63.882812 116.949219 63.707031 117.082031 63.460938 C 117.21875 63.210938 117.285156 62.882812 117.285156 62.476562 C 117.285156 61.84375 117.171875 61.394531 116.945312 61.140625 C 116.71875 60.878906 116.449219 60.746094 116.128906 60.746094 C 115.917969 60.746094 115.707031 60.804688 115.496094 60.914062 C 115.285156 61.023438 115.113281 61.207031 114.976562 61.460938 C 114.839844 61.710938 114.773438 62.050781 114.773438 62.476562 C 114.773438 63.089844 114.890625 63.527344 115.128906 63.78125 C 115.367188 64.035156 115.644531 64.164062 115.960938 64.164062 Z M 127.992188 65.878906 L 125.765625 65.878906 L 125.765625 61.894531 C 125.765625 61.53125 125.679688 61.265625 125.503906 61.089844 C 125.328125 60.917969 125.113281 60.832031 124.867188 60.832031 C 124.613281 60.832031 124.378906 60.902344 124.167969 61.046875 C 123.957031 61.191406 123.785156 61.421875 123.660156 61.738281 C 123.53125 62.054688 123.46875 62.472656 123.46875 62.996094 L 122.796875 62.996094 C 122.796875 62.015625 122.914062 61.21875 123.148438 60.601562 C 123.378906 59.988281 123.699219 59.535156 124.101562 59.246094 C 124.507812 58.960938 124.964844 58.816406 125.476562 58.816406 C 126.0625 58.816406 126.539062 58.949219 126.910156 59.214844 C 127.28125 59.476562 127.554688 59.839844 127.730469 60.304688 C 127.90625 60.769531 127.992188 61.296875 127.992188 61.894531 Z M 123.46875 65.878906 L 121.253906 65.878906 L 121.253906 59.039062 L 123.207031 59.039062 L 123.46875 60.171875 Z M 140.078125 65.878906 L 133.875 65.878906 L 133.875 56.5625 L 140.078125 56.5625 L 140.078125 58.484375 L 136.089844 58.484375 L 136.089844 60.273438 L 139.832031 60.273438 L 139.832031 62.203125 L 136.089844 62.203125 L 136.089844 63.933594 L 140.078125 63.933594 Z M 149.097656 65.878906 L 146.867188 65.878906 L 146.867188 61.894531 C 146.867188 61.53125 146.78125 61.265625 146.605469 61.089844 C 146.429688 60.917969 146.21875 60.832031 145.96875 60.832031 C 145.714844 60.832031 145.480469 60.902344 145.269531 61.046875 C 145.058594 61.191406 144.886719 61.421875 144.757812 61.738281 C 144.632812 62.054688 144.570312 62.472656 144.570312 62.996094 L 143.898438 62.996094 C 143.898438 62.015625 144.015625 61.21875 144.246094 60.601562 C 144.480469 59.988281 144.800781 59.535156 145.203125 59.246094 C 145.605469 58.960938 146.066406 58.816406 146.578125 58.816406 C 147.164062 58.816406 147.640625 58.949219 148.011719 59.214844 C 148.382812 59.476562 148.660156 59.839844 148.832031 60.304688 C 149.007812 60.769531 149.097656 61.296875 149.097656 61.894531 Z M 144.570312 65.878906 L 142.355469 65.878906 L 142.355469 59.039062 L 144.308594 59.039062 L 144.570312 60.171875 Z M 154.113281 69.441406 C 153.246094 69.441406 152.511719 69.324219 151.914062 69.085938 C 151.316406 68.855469 150.863281 68.550781 150.558594 68.179688 C 150.25 67.808594 150.097656 67.414062 150.097656 66.996094 C 150.097656 66.554688 150.253906 66.210938 150.570312 65.960938 C 150.882812 65.710938 151.265625 65.585938 151.71875 65.585938 L 153.535156 66.109375 C 153.136719 66.109375 152.828125 66.175781 152.609375 66.304688 C 152.394531 66.4375 152.285156 66.625 152.285156 66.871094 C 152.285156 67.148438 152.457031 67.351562 152.800781 67.484375 C 153.144531 67.613281 153.578125 67.675781 154.113281 67.675781 C 154.484375 67.675781 154.800781 67.617188 155.066406 67.5 C 155.328125 67.382812 155.527344 67.230469 155.664062 67.042969 C 155.800781 66.859375 155.867188 66.667969 155.867188 66.46875 C 155.867188 66.347656 155.835938 66.257812 155.769531 66.199219 C 155.699219 66.136719 155.597656 66.109375 155.453125 66.109375 L 153.535156 66.109375 C 153.078125 66.109375 152.640625 66.027344 152.222656 65.871094 C 151.800781 65.710938 151.460938 65.496094 151.195312 65.222656 C 150.929688 64.945312 150.796875 64.636719 150.796875 64.289062 C 150.796875 64 150.875 63.75 151.03125 63.53125 C 151.1875 63.3125 151.410156 63.144531 151.699219 63.023438 C 151.988281 62.902344 152.324219 62.84375 152.707031 62.84375 L 153.34375 63.53125 C 153.210938 63.53125 153.097656 63.554688 152.992188 63.597656 C 152.890625 63.636719 152.808594 63.699219 152.746094 63.777344 C 152.6875 63.859375 152.660156 63.957031 152.660156 64.078125 C 152.660156 64.238281 152.726562 64.359375 152.867188 64.445312 C 153.003906 64.53125 153.226562 64.574219 153.535156 64.574219 L 155.453125 64.574219 C 156.265625 64.574219 156.902344 64.703125 157.363281 64.964844 C 157.824219 65.226562 158.054688 65.671875 158.054688 66.304688 C 158.054688 66.839844 157.890625 67.34375 157.5625 67.824219 C 157.234375 68.304688 156.777344 68.691406 156.1875 68.992188 C 155.597656 69.289062 154.90625 69.441406 154.113281 69.441406 Z M 154.074219 63.648438 C 153.523438 63.648438 153.007812 63.550781 152.535156 63.355469 C 152.0625 63.15625 151.683594 62.878906 151.390625 62.519531 C 151.101562 62.164062 150.957031 61.738281 150.957031 61.246094 C 150.957031 60.742188 151.101562 60.308594 151.390625 59.949219 C 151.683594 59.582031 152.0625 59.304688 152.535156 59.109375 C 153.007812 58.914062 153.523438 58.816406 154.074219 58.816406 C 154.621094 58.816406 155.128906 58.914062 155.605469 59.109375 C 156.078125 59.304688 156.464844 59.582031 156.761719 59.949219 C 157.054688 60.308594 157.203125 60.742188 157.203125 61.246094 C 157.203125 61.738281 157.054688 62.164062 156.761719 62.519531 C 156.464844 62.878906 156.078125 63.15625 155.605469 63.355469 C 155.128906 63.550781 154.621094 63.648438 154.074219 63.648438 Z M 154.101562 62.128906 C 154.441406 62.128906 154.679688 62.042969 154.820312 61.871094 C 154.960938 61.703125 155.03125 61.492188 155.03125 61.246094 C 155.03125 60.960938 154.960938 60.734375 154.816406 60.574219 C 154.671875 60.40625 154.425781 60.324219 154.074219 60.324219 C 153.757812 60.324219 153.523438 60.40625 153.371094 60.574219 C 153.21875 60.734375 153.144531 60.960938 153.144531 61.246094 C 153.144531 61.492188 153.21875 61.703125 153.375 61.871094 C 153.527344 62.042969 153.769531 62.128906 154.101562 62.128906 Z M 156.675781 59.929688 L 155.679688 59.269531 C 155.679688 58.847656 155.792969 58.484375 156.011719 58.171875 C 156.234375 57.863281 156.519531 57.621094 156.863281 57.453125 C 157.210938 57.28125 157.566406 57.195312 157.929688 57.195312 L 157.847656 59.289062 C 157.464844 59.289062 157.171875 59.34375 156.976562 59.449219 C 156.777344 59.550781 156.675781 59.710938 156.675781 59.929688 Z M 160.890625 58.160156 C 160.46875 58.160156 160.148438 58.050781 159.917969 57.835938 C 159.6875 57.621094 159.574219 57.316406 159.574219 56.925781 C 159.574219 56.539062 159.6875 56.234375 159.917969 56.003906 C 160.148438 55.777344 160.46875 55.660156 160.890625 55.660156 C 161.296875 55.660156 161.617188 55.777344 161.851562 56.003906 C 162.085938 56.234375 162.203125 56.539062 162.203125 56.925781 C 162.203125 57.316406 162.085938 57.621094 161.851562 57.835938 C 161.617188 58.050781 161.296875 58.160156 160.890625 58.160156 Z M 161.996094 65.878906 L 159.78125 65.878906 L 159.78125 59 L 161.996094 59 Z M 171.28125 65.878906 L 169.054688 65.878906 L 169.054688 61.894531 C 169.054688 61.53125 168.964844 61.265625 168.789062 61.089844 C 168.617188 60.917969 168.402344 60.832031 168.152344 60.832031 C 167.902344 60.832031 167.667969 60.902344 167.457031 61.046875 C 167.246094 61.191406 167.074219 61.421875 166.949219 61.738281 C 166.820312 62.054688 166.757812 62.472656 166.757812 62.996094 L 166.085938 62.996094 C 166.085938 62.015625 166.203125 61.21875 166.433594 60.601562 C 166.667969 59.988281 166.984375 59.535156 167.390625 59.246094 C 167.792969 58.960938 168.253906 58.816406 168.761719 58.816406 C 169.351562 58.816406 169.828125 58.949219 170.199219 59.214844 C 170.570312 59.476562 170.84375 59.839844 171.019531 60.304688 C 171.195312 60.769531 171.28125 61.296875 171.28125 61.894531 Z M 166.757812 65.878906 L 164.542969 65.878906 L 164.542969 59.039062 L 166.492188 59.039062 L 166.757812 60.171875 Z M 176.171875 66.101562 C 175.601562 66.101562 175.0625 65.953125 174.5625 65.65625 C 174.058594 65.359375 173.652344 64.9375 173.339844 64.382812 C 173.027344 63.835938 172.871094 63.183594 172.871094 62.425781 C 172.871094 61.671875 173.027344 61.027344 173.335938 60.488281 C 173.644531 59.949219 174.050781 59.535156 174.554688 59.246094 C 175.054688 58.960938 175.597656 58.816406 176.171875 58.816406 C 176.742188 58.816406 177.242188 58.933594 177.667969 59.160156 C 178.089844 59.390625 178.433594 59.699219 178.695312 60.089844 C 178.957031 60.476562 179.125 60.917969 179.207031 61.40625 C 179.289062 61.890625 179.269531 62.394531 179.15625 62.914062 L 174.621094 62.914062 L 174.621094 61.789062 L 177.535156 61.789062 L 177.21875 61.996094 C 177.230469 61.835938 177.226562 61.671875 177.203125 61.503906 C 177.175781 61.339844 177.125 61.183594 177.050781 61.042969 C 176.976562 60.902344 176.875 60.789062 176.738281 60.703125 C 176.601562 60.617188 176.425781 60.574219 176.214844 60.574219 C 175.980469 60.574219 175.773438 60.632812 175.601562 60.746094 C 175.429688 60.855469 175.292969 61.023438 175.199219 61.238281 C 175.105469 61.453125 175.058594 61.714844 175.058594 62.023438 L 175.058594 62.898438 C 175.058594 63.191406 175.101562 63.445312 175.183594 63.65625 C 175.265625 63.871094 175.390625 64.035156 175.554688 64.152344 C 175.71875 64.269531 175.921875 64.328125 176.171875 64.328125 C 176.375 64.328125 176.554688 64.289062 176.707031 64.203125 C 176.855469 64.121094 176.964844 63.988281 177.023438 63.808594 L 179.226562 63.808594 C 179.15625 64.234375 178.984375 64.621094 178.714844 64.96875 C 178.445312 65.316406 178.09375 65.589844 177.664062 65.796875 C 177.230469 66 176.734375 66.101562 176.171875 66.101562 Z M 176.171875 66.101562 "/>
</g>
<g clip-path="url(#clip3)" clip-rule="nonzero">
<path style=" stroke:none;fill-rule:evenodd;fill:rgb(90.980392%,48.235294%,11.372549%);fill-opacity:1;" d="M 194.648438 55.992188 L 192.433594 53.027344 L 184.695312 58.628906 L 187.816406 58.628906 Z M 196.730469 58.628906 L 195.847656 56.234375 L 189.222656 58.628906 Z M 197.195312 58.335938 L 198.460938 58.335938 C 198.824219 58.335938 199.058594 58.621094 199.058594 58.980469 L 199.058594 63.042969 L 199.628906 62.753906 L 199.625 58.675781 C 199.625 58.3125 199.117188 57.75 198.753906 57.75 L 196.964844 57.75 L 197.167969 58.296875 Z M 199.058594 67.71875 L 199.058594 71.054688 C 199.390625 71.019531 199.640625 70.722656 199.640625 70.382812 L 199.636719 67.429688 Z M 182.503906 58.335938 L 184.179688 58.335938 L 184.992188 57.75 L 183.089844 57.75 L 183.101562 57.746094 C 181.695312 57.746094 181.265625 57.761719 181.277344 59.519531 L 181.277344 71.398438 C 181.277344 71.761719 181.640625 72.074219 182.003906 72.074219 L 197.878906 72.074219 C 198.242188 72.074219 198.605469 71.773438 198.605469 71.410156 L 198.605469 68.238281 L 198.535156 68.273438 L 197.078125 68.273438 C 195.792969 68.273438 194.75 67.226562 194.75 65.933594 C 194.75 64.644531 195.792969 63.597656 197.078125 63.597656 L 198.535156 63.597656 L 198.605469 63.5625 L 198.601562 59.582031 C 198.601562 59.21875 198.242188 58.921875 197.878906 58.921875 L 183.089844 58.921875 C 183.035156 58.917969 182.988281 58.917969 182.945312 58.910156 L 182.585938 58.910156 C 182.425781 58.910156 182.292969 58.777344 182.292969 58.617188 C 182.292969 58.484375 182.382812 58.371094 182.503906 58.335938 Z M 198.535156 64.179688 L 197.078125 64.179688 C 196.113281 64.179688 195.332031 64.964844 195.332031 65.933594 C 195.332031 66.902344 196.113281 67.6875 197.078125 67.6875 L 198.535156 67.6875 L 199.628906 66.765625 L 199.625 63.28125 Z M 196.203125 65.933594 C 196.203125 65.453125 196.597656 65.058594 197.078125 65.058594 C 197.5625 65.058594 197.953125 65.453125 197.953125 65.933594 C 197.953125 66.417969 197.5625 66.8125 197.078125 66.8125 C 196.597656 66.8125 196.203125 66.417969 196.203125 65.933594 Z M 196.203125 65.933594 "/>
</g>
</g>
</svg>
