<svg xmlns="http://www.w3.org/2000/svg" version="1.1" xmlns:xlink="http://www.w3.org/1999/xlink" xmlns:svgjs="http://svgjs.dev/svgjs" width="2000" height="1500" viewBox="0 0 2000 1500"><rect width="2000" height="1500" fill="#ffffff"></rect><g transform="matrix(0.75,0,0,0.75,249.09090988515527,282.7536437246963)"><svg viewBox="0 0 396 247" data-background-color="#ffffff" preserveAspectRatio="xMidYMid meet" height="1247" width="2000" xmlns="http://www.w3.org/2000/svg" xmlns:xlink="http://www.w3.org/1999/xlink"><g id="tight-bounds" transform="matrix(1,0,0,1,0.2399997968605021,-0.09999999999999432)"><svg viewBox="0 0 395.52 247.2" height="247.2" width="395.52"><g><svg></svg></g><g><svg viewBox="0 0 395.52 247.2" height="247.2" width="395.52"><g><g><path xmlns="http://www.w3.org/2000/svg" d="M43.474 186.71l-13.557-40.322h29.011l0.41 1.445 0.404-1.445h27.621l-12.287 40.322zM1.036 60.49h33.484l11.457 40.322-31.384 0zM82.675 64.252h20.316l11.526 36.56-42.05 0zM129.264 147.589l0.329-1.201h28.995l-13.461 40.322h-31.677l-12.884-40.322 28.319 0zM153.141 60.49h34.123l-13.461 40.322h-31.716zM189.446 86.524v-26.034h103.911v26.034l-36.757 0 0 14.288-30.097 0v-14.288zM256.6 186.71h-30.097l0-40.322h30.097zM394.484 186.71h-84.386l0-40.322h30.098v13.987h54.288zM310.098 60.49h84.386v26.034h-54.288v14.288l-30.098 0z" fill="#233565" fill-rule="nonzero" stroke="none" stroke-width="1" stroke-linecap="butt" stroke-linejoin="miter" stroke-miterlimit="10" stroke-dasharray="" stroke-dashoffset="0" font-family="none" font-weight="none" font-size="none" text-anchor="none" style="mix-blend-mode: normal" data-fill-palette-color="tertiary"></path></g></g><g transform="matrix(1,0,0,1,2.842170943040401e-14,104.78494699764514)"><svg viewBox="0 0 395.5199999999999 37.6301060047097" height="37.6301060047097" width="395.5199999999999"><g><svg viewBox="0 0 395.5199999999999 37.6301060047097" height="37.6301060047097" width="395.5199999999999"><g><svg viewBox="0 0 440.4799242627121 41.90763107542566" height="37.6301060047097" width="395.5199999999999"><g transform="matrix(1,0,0,1,0,5.791865076270842)"><svg viewBox="0 0 395.52000000000004 30.32390092288398" height="30.32390092288398" width="395.52000000000004"><g><svg viewBox="0 0 395.52000000000004 30.32390092288398" height="30.32390092288398" width="395.52000000000004"><g><svg viewBox="0 0 395.52000000000004 30.32390092288398" height="30.32390092288398" width="395.52000000000004"><g transform="matrix(1,0,0,1,0,0)"><svg width="395.52000000000004" viewBox="0.30000001192092896 -36.79999923706055 647.2061157226562 49.62999725341797" height="30.32390092288398" data-palette-color="#233565"><path d="M11.58 0L0.3-33.55 9.2-33.55 16.73-7.05 14.88-7.05 22-32.55 27.4-32.55 35.25-7.65 33.63-7.65 40.73-33.55 49.8-33.55 38.6 0 30.18 0 24.78-16.9 25.13-16.9 19.98 0 11.58 0ZM75 0L68.02 0 67-6.58 67-15.8Q67-17.65 66.32-18.68 65.65-19.7 63.45-19.7L63.45-19.7Q62.15-19.7 61.34-19.31 60.52-18.93 60.14-18.29 59.75-17.65 59.75-16.9L59.75-16.9 51.1-16.9Q51.1-19.8 52.47-21.69 53.85-23.58 56.6-24.5 59.35-25.43 63.45-25.43L63.45-25.43Q67.02-25.43 69.61-24.33 72.2-23.23 73.6-21.03 75-18.82 75-15.5L75-15.5 75 0ZM60.27 0.8L60.27 0.8Q56.97 0.8 54.71-0.31 52.45-1.43 51.3-3.33 50.15-5.23 50.15-7.53L50.15-7.53Q50.15-9.7 51.35-11.29 52.55-12.88 54.91-13.75 57.27-14.63 60.72-14.63L60.72-14.63Q62.82-14.63 64.44-14.4 66.05-14.18 67.75-13.85L67.75-13.85 67.75-9.35Q66.5-9.63 65.16-9.78 63.82-9.93 62.55-9.93L62.55-9.93Q60.77-9.93 59.74-9.36 58.7-8.8 58.7-7.53L58.7-7.53Q58.7-6.6 59.62-5.91 60.55-5.23 62.55-5.23L62.55-5.23Q64.25-5.23 65.22-5.9 66.2-6.58 66.6-7.6 67-8.63 67-9.63L67-9.63 68.87-9.63Q68.87-6.78 67.97-4.4 67.07-2.02 65.17-0.61 63.27 0.8 60.27 0.8ZM90.92 0L82.92 0 82.92-34.5 90.92-34.5 90.92 0ZM107.42 0L99.42 0 99.42-34.5 107.42-34.5 107.42 0ZM125.77 0.8L125.77 0.8Q122.67 0.8 119.94-0.8 117.22-2.4 115.53-5.38 113.84-8.35 113.84-12.43L113.84-12.43Q113.84-16.5 115.52-19.41 117.19-22.33 119.92-23.88 122.64-25.43 125.77-25.43L125.77-25.43Q128.87-25.43 131.17-24.19 133.47-22.95 134.88-20.85 136.29-18.75 136.73-16.11 137.17-13.48 136.54-10.68L136.54-10.68 120.17-10.68 120.17-14.73 130.69-14.73 129.54-13.98Q129.62-14.85 129.48-15.75 129.34-16.65 128.94-17.41 128.54-18.18 127.8-18.64 127.07-19.1 125.92-19.1L125.92-19.1Q124.64-19.1 123.7-18.49 122.77-17.88 122.25-16.71 121.74-15.55 121.74-13.88L121.74-13.88 121.74-10.73Q121.74-9.15 122.19-8 122.64-6.85 123.53-6.21 124.42-5.58 125.77-5.58L125.77-5.58Q126.87-5.58 127.69-6.03 128.52-6.48 128.84-7.45L128.84-7.45 136.79-7.45Q136.42-5.15 134.95-3.28 133.49-1.4 131.15-0.3 128.81 0.8 125.77 0.8ZM152.39 0.8L152.39 0.8Q150.04 0.8 148-0.05 145.96-0.9 144.72-2.71 143.49-4.53 143.49-7.38L143.49-7.38 143.49-30.85 151.54-30.85 151.54-7.68Q151.54-5.43 153.76-5.43L153.76-5.43Q154.46-5.43 155.25-5.59 156.04-5.75 157.09-6.13L157.09-6.13 158.26-0.55Q156.74 0 155.35 0.4 153.96 0.8 152.39 0.8ZM157.14-19.45L140.56-19.45 140.56-24.63 157.14-24.63 157.14-19.45ZM185.18-26.63L173.53-26.63 173.53-33.55 201.16-33.55 201.16-26.63 189.58-26.63 191.38-28.43 191.38 0 183.38 0 183.38-28.43 185.18-26.63ZM208.78 0L200.78 0 200.78-24.78 208.78-24.78 208.78 0ZM208.78-10.5L207.08-10.5Q207.08-15.53 208.36-18.75 209.63-21.98 211.58-23.53 213.53-25.08 215.56-25.08L215.56-25.08Q215.96-25.08 216.36-25.04 216.75-25 217.11-24.93L217.11-24.93 217.18-16.88Q216.56-16.95 215.91-16.99 215.25-17.03 214.68-17.03L214.68-17.03Q212.93-17.03 211.59-16.38 210.25-15.73 209.52-14.3 208.78-12.88 208.78-10.5L208.78-10.5ZM245.15 0L238.18 0 237.15-6.58 237.15-15.8Q237.15-17.65 236.48-18.68 235.8-19.7 233.6-19.7L233.6-19.7Q232.3-19.7 231.49-19.31 230.68-18.93 230.29-18.29 229.9-17.65 229.9-16.9L229.9-16.9 221.25-16.9Q221.25-19.8 222.63-21.69 224-23.58 226.75-24.5 229.5-25.43 233.6-25.43L233.6-25.43Q237.18-25.43 239.77-24.33 242.35-23.23 243.75-21.03 245.15-18.82 245.15-15.5L245.15-15.5 245.15 0ZM230.43 0.8L230.43 0.8Q227.13 0.8 224.87-0.31 222.6-1.43 221.45-3.33 220.3-5.23 220.3-7.53L220.3-7.53Q220.3-9.7 221.5-11.29 222.7-12.88 225.06-13.75 227.43-14.63 230.88-14.63L230.88-14.63Q232.98-14.63 234.59-14.4 236.2-14.18 237.9-13.85L237.9-13.85 237.9-9.35Q236.65-9.63 235.31-9.78 233.98-9.93 232.7-9.93L232.7-9.93Q230.93-9.93 229.89-9.36 228.85-8.8 228.85-7.53L228.85-7.53Q228.85-6.6 229.78-5.91 230.7-5.23 232.7-5.23L232.7-5.23Q234.4-5.23 235.38-5.9 236.35-6.58 236.75-7.6 237.15-8.63 237.15-9.63L237.15-9.63 239.03-9.63Q239.03-6.78 238.13-4.4 237.23-2.02 235.33-0.61 233.43 0.8 230.43 0.8ZM277.43 0L269.38 0 269.38-14.35Q269.38-16.3 268.43-17.24 267.48-18.18 266.13-18.18L266.13-18.18Q264.75-18.18 263.6-17.4 262.45-16.63 261.76-14.91 261.08-13.2 261.08-10.38L261.08-10.38 258.65-10.38Q258.65-15.68 259.91-19 261.18-22.33 263.36-23.88 265.55-25.43 268.33-25.43L268.33-25.43Q271.5-25.43 273.51-24 275.53-22.58 276.48-20.08 277.43-17.57 277.43-14.35L277.43-14.35 277.43 0ZM261.08 0L253.08 0 253.08-24.63 260.13-24.63 261.08-20.55 261.08 0ZM294.77 0.8L294.77 0.8Q291.25 0.8 288.55-0.14 285.85-1.07 284.34-2.96 282.82-4.85 282.85-7.73L282.85-7.73 290.07-7.73Q290.12-6.43 291.09-5.93 292.05-5.43 293.7-5.43L293.7-5.43Q294.7-5.43 295.35-5.68 296-5.93 296.32-6.34 296.65-6.75 296.65-7.23L296.65-7.23Q296.65-7.85 296.2-8.22 295.75-8.6 294.8-8.97L294.8-8.97 288.82-11.3Q286.17-12.4 284.74-14.09 283.3-15.78 283.3-18.1L283.3-18.1Q283.3-21.38 286.32-23.4 289.35-25.43 294.6-25.43L294.6-25.43Q299.52-25.43 302.17-23.13 304.82-20.83 304.85-17.28L304.85-17.28 297.52-17.28Q297.52-18.07 296.85-18.66 296.17-19.25 294.6-19.25L294.6-19.25Q293.3-19.25 292.55-18.82 291.8-18.4 291.8-17.7L291.8-17.7Q291.8-16.75 293.37-16.2L293.37-16.2 300.17-13.48Q302.7-12.48 304.15-10.98 305.6-9.47 305.6-7.23L305.6-7.23Q305.6-5.18 304.19-3.34 302.77-1.5 300.32-0.35 297.87 0.8 294.77 0.8ZM334.85 0L327.87 0 326.85-6.58 326.85-15.8Q326.85-17.65 326.17-18.68 325.5-19.7 323.3-19.7L323.3-19.7Q322-19.7 321.18-19.31 320.37-18.93 319.98-18.29 319.6-17.65 319.6-16.9L319.6-16.9 310.95-16.9Q310.95-19.8 312.32-21.69 313.7-23.58 316.45-24.5 319.2-25.43 323.3-25.43L323.3-25.43Q326.87-25.43 329.46-24.33 332.05-23.23 333.45-21.03 334.85-18.82 334.85-15.5L334.85-15.5 334.85 0ZM320.12 0.8L320.12 0.8Q316.82 0.8 314.56-0.31 312.3-1.43 311.15-3.33 310-5.23 310-7.53L310-7.53Q310-9.7 311.2-11.29 312.4-12.88 314.76-13.75 317.12-14.63 320.57-14.63L320.57-14.63Q322.67-14.63 324.28-14.4 325.9-14.18 327.6-13.85L327.6-13.85 327.6-9.35Q326.35-9.63 325.01-9.78 323.67-9.93 322.4-9.93L322.4-9.93Q320.62-9.93 319.58-9.36 318.55-8.8 318.55-7.53L318.55-7.53Q318.55-6.6 319.47-5.91 320.4-5.23 322.4-5.23L322.4-5.23Q324.1-5.23 325.07-5.9 326.05-6.58 326.45-7.6 326.85-8.63 326.85-9.63L326.85-9.63 328.72-9.63Q328.72-6.78 327.82-4.4 326.92-2.02 325.02-0.61 323.12 0.8 320.12 0.8ZM352.82 0.8L352.82 0.8Q349.59 0.8 346.83-0.83 344.07-2.45 342.38-5.4 340.69-8.35 340.69-12.3L340.69-12.3Q340.69-16.63 342.38-19.54 344.07-22.45 346.83-23.94 349.59-25.43 352.82-25.43L352.82-25.43Q355.54-25.43 357.58-24.5 359.62-23.58 360.97-22.08 362.32-20.58 362.98-18.78 363.64-16.98 363.64-15.25L363.64-15.25 355.64-15.33Q355.47-16.4 354.78-17.29 354.09-18.18 352.77-18.18L352.77-18.18Q351.72-18.18 350.78-17.64 349.84-17.1 349.26-15.83 348.67-14.55 348.67-12.3L348.67-12.3Q348.67-10.1 349.26-8.83 349.84-7.55 350.78-7.03 351.72-6.5 352.77-6.5L352.77-6.5Q354.47-6.5 355.06-7.29 355.64-8.08 355.64-9.28L355.64-9.28 363.64-9.28Q363.64-6.63 362.47-4.33 361.29-2.02 358.91-0.61 356.52 0.8 352.82 0.8ZM379.04 0.8L379.04 0.8Q376.69 0.8 374.65-0.05 372.62-0.9 371.38-2.71 370.14-4.53 370.14-7.38L370.14-7.38 370.14-30.85 378.19-30.85 378.19-7.68Q378.19-5.43 380.42-5.43L380.42-5.43Q381.12-5.43 381.9-5.59 382.69-5.75 383.74-6.13L383.74-6.13 384.92-0.55Q383.39 0 382 0.4 380.62 0.8 379.04 0.8ZM383.79-19.45L367.22-19.45 367.22-24.63 383.79-24.63 383.79-19.45ZM395.41-27.8L395.41-27.8Q393.14-27.8 391.9-28.96 390.66-30.13 390.66-32.25L390.66-32.25Q390.66-34.33 391.9-35.56 393.14-36.8 395.41-36.8L395.41-36.8Q397.61-36.8 398.89-35.56 400.16-34.33 400.16-32.25L400.16-32.25Q400.16-30.13 398.89-28.96 397.61-27.8 395.41-27.8ZM399.41 0L391.41 0 391.41-24.78 399.41-24.78 399.41 0ZM419.11 0.8L419.11 0.8Q415.69 0.8 412.82-0.61 409.96-2.02 408.25-4.91 406.54-7.8 406.54-12.25L406.54-12.25Q406.54-16.85 408.25-19.75 409.96-22.65 412.82-24.04 415.69-25.43 419.11-25.43L419.11-25.43Q422.46-25.43 425.29-24.04 428.11-22.65 429.82-19.75 431.54-16.85 431.54-12.25L431.54-12.25Q431.54-7.8 429.82-4.91 428.11-2.02 425.29-0.61 422.46 0.8 419.11 0.8ZM418.81-6.18L418.81-6.18Q419.96-6.18 421.05-6.78 422.14-7.38 422.86-8.71 423.59-10.05 423.59-12.25L423.59-12.25Q423.59-15.68 422.36-17.07 421.14-18.48 419.41-18.48L419.41-18.48Q418.26-18.48 417.12-17.88 415.99-17.28 415.25-15.91 414.51-14.55 414.51-12.25L414.51-12.25Q414.51-8.93 415.8-7.55 417.09-6.18 418.81-6.18ZM462.28 0L454.23 0 454.23-14.35Q454.23-16.3 453.28-17.24 452.33-18.18 450.98-18.18L450.98-18.18Q449.61-18.18 448.46-17.4 447.31-16.63 446.62-14.91 445.93-13.2 445.93-10.38L445.93-10.38 443.51-10.38Q443.51-15.68 444.77-19 446.03-22.33 448.22-23.88 450.41-25.43 453.18-25.43L453.18-25.43Q456.36-25.43 458.37-24 460.38-22.58 461.33-20.08 462.28-17.57 462.28-14.35L462.28-14.35 462.28 0ZM445.93 0L437.93 0 437.93-24.63 444.98-24.63 445.93-20.55 445.93 0ZM505.95 0L483.53 0 483.53-33.55 505.95-33.55 505.95-26.63 491.53-26.63 491.53-20.18 505.05-20.18 505.05-13.23 491.53-13.23 491.53-7 505.95-7 505.95 0ZM538.53 0L530.48 0 530.48-14.35Q530.48-16.3 529.53-17.24 528.58-18.18 527.23-18.18L527.23-18.18Q525.85-18.18 524.7-17.4 523.55-16.63 522.86-14.91 522.18-13.2 522.18-10.38L522.18-10.38 519.75-10.38Q519.75-15.68 521.01-19 522.28-22.33 524.46-23.88 526.65-25.43 529.43-25.43L529.43-25.43Q532.6-25.43 534.61-24 536.63-22.58 537.58-20.08 538.53-17.57 538.53-14.35L538.53-14.35 538.53 0ZM522.18 0L514.18 0 514.18-24.63 521.23-24.63 522.18-20.55 522.18 0ZM556.65 12.83L556.65 12.83Q551.95 12.83 548.71 11.56 545.47 10.3 543.81 8.29 542.15 6.28 542.15 4.03L542.15 4.03Q542.15 1.65 543.85 0.3 545.55-1.05 548-1.05L548-1.05 554.57 0.83Q552.4 0.83 551.22 1.54 550.05 2.25 550.05 3.58L550.05 3.58Q550.05 5.08 551.91 5.78 553.77 6.48 556.65 6.48L556.65 6.48Q558.67 6.48 560.1 5.84 561.52 5.2 562.26 4.2 563 3.2 563 2.13L563 2.13Q563 1.48 562.64 1.15 562.27 0.83 561.5 0.83L561.5 0.83 554.57 0.83Q552.1 0.83 549.82-0.03 547.55-0.88 546.11-2.36 544.67-3.85 544.67-5.73L544.67-5.73Q544.67-7.28 545.52-8.45 546.37-9.63 547.94-10.28 549.5-10.93 551.57-10.93L551.57-10.93 553.87-8.45Q553.17-8.45 552.61-8.22 552.05-8 551.72-7.56 551.4-7.13 551.4-6.48L551.4-6.48Q551.4-5.63 552.15-5.16 552.9-4.7 554.57-4.7L554.57-4.7 561.5-4.7Q565.9-4.7 568.4-3.29 570.9-1.88 570.9 1.53L570.9 1.53Q570.9 4.42 569.12 7.01 567.35 9.6 564.15 11.21 560.95 12.83 556.65 12.83ZM556.52-8.03L556.52-8.03Q553.52-8.03 550.96-9.09 548.4-10.15 546.82-12.09 545.25-14.03 545.25-16.68L545.25-16.68Q545.25-19.4 546.82-21.36 548.4-23.33 550.96-24.38 553.52-25.43 556.52-25.43L556.52-25.43Q559.47-25.43 562.05-24.38 564.62-23.33 566.22-21.36 567.82-19.4 567.82-16.68L567.82-16.68Q567.82-14.03 566.22-12.09 564.62-10.15 562.05-9.09 559.47-8.03 556.52-8.03ZM556.62-13.5L556.62-13.5Q558.45-13.5 559.21-14.43 559.97-15.35 559.97-16.68L559.97-16.68Q559.97-18.23 559.2-19.11 558.42-20 556.52-20L556.52-20Q554.8-20 553.97-19.11 553.15-18.23 553.15-16.68L553.15-16.68Q553.15-15.35 553.99-14.43 554.82-13.5 556.62-13.5ZM565.92-21.43L565.92-21.43 562.32-23.8Q562.32-26.08 563.52-27.75 564.72-29.43 566.6-30.35 568.47-31.28 570.45-31.28L570.45-31.28 570.15-23.73Q568.07-23.73 567-23.16 565.92-22.6 565.92-21.43ZM581.14-27.8L581.14-27.8Q578.87-27.8 577.63-28.96 576.39-30.13 576.39-32.25L576.39-32.25Q576.39-34.33 577.63-35.56 578.87-36.8 581.14-36.8L581.14-36.8Q583.35-36.8 584.62-35.56 585.89-34.33 585.89-32.25L585.89-32.25Q585.89-30.13 584.62-28.96 583.35-27.8 581.14-27.8ZM585.14 0L577.14 0 577.14-24.78 585.14-24.78 585.14 0ZM618.69 0L610.64 0 610.64-14.35Q610.64-16.3 609.69-17.24 608.74-18.18 607.39-18.18L607.39-18.18Q606.02-18.18 604.87-17.4 603.72-16.63 603.03-14.91 602.34-13.2 602.34-10.38L602.34-10.38 599.92-10.38Q599.92-15.68 601.18-19 602.44-22.33 604.63-23.88 606.82-25.43 609.59-25.43L609.59-25.43Q612.77-25.43 614.78-24 616.79-22.58 617.74-20.08 618.69-17.57 618.69-14.35L618.69-14.35 618.69 0ZM602.34 0L594.34 0 594.34-24.63 601.39-24.63 602.34-20.55 602.34 0ZM636.36 0.8L636.36 0.8Q633.26 0.8 630.54-0.8 627.81-2.4 626.13-5.38 624.44-8.35 624.44-12.43L624.44-12.43Q624.44-16.5 626.11-19.41 627.79-22.33 630.51-23.88 633.24-25.43 636.36-25.43L636.36-25.43Q639.46-25.43 641.76-24.19 644.06-22.95 645.48-20.85 646.89-18.75 647.33-16.11 647.76-13.48 647.14-10.68L647.14-10.68 630.76-10.68 630.76-14.73 641.29-14.73 640.14-13.98Q640.21-14.85 640.08-15.75 639.94-16.65 639.54-17.41 639.14-18.18 638.4-18.64 637.66-19.1 636.51-19.1L636.51-19.1Q635.24-19.1 634.3-18.49 633.36-17.88 632.85-16.71 632.34-15.55 632.34-13.88L632.34-13.88 632.34-10.73Q632.34-9.15 632.79-8 633.24-6.85 634.13-6.21 635.01-5.58 636.36-5.58L636.36-5.58Q637.46-5.58 638.29-6.03 639.11-6.48 639.44-7.45L639.44-7.45 647.39-7.45Q647.01-5.15 645.55-3.28 644.09-1.4 641.75-0.3 639.41 0.8 636.36 0.8Z" opacity="1" transform="matrix(1,0,0,1,0,0)" fill="#233565" class="undefined-text-0" data-fill-palette-color="primary" id="text-0"></path></svg></g></svg></g></svg></g></svg></g><g transform="matrix(1,0,0,1,399.94498491827096,0)"><svg viewBox="0 0 40.534939344441135 41.90763107542566" height="41.90763107542566" width="40.534939344441135"><g><svg xmlns="http://www.w3.org/2000/svg" xmlns:xlink="http://www.w3.org/1999/xlink" version="1.1" x="0" y="0" viewBox="1.527470588684082 0 96.1915283203125 99.4489974975586" enable-background="new 0 0 100 100" xml:space="preserve" height="41.90763107542566" width="40.534939344441135" class="icon-icon-0" data-fill-palette-color="accent" id="icon-0"><path fill-rule="evenodd" clip-rule="evenodd" d="M71.567 15.476L59.975 0 19.417 29.243H35.77L71.567 15.476zM82.479 29.243l-4.625-12.508L43.142 29.243H82.479zM84.913 27.716h6.64c1.899 0 3.121 1.48 3.121 3.373v21.198l2.992-1.495-0.03-21.297c0-1.9-2.656-4.831-4.556-4.831h-9.379l1.06 2.854L84.913 27.716zM94.674 76.706v17.43c1.732-0.184 3.045-1.739 3.045-3.518l-0.023-15.423L94.674 76.706zM7.939 27.716h0.435 8.349l4.258-3.052h-9.966l0.069-0.023c-7.372-0.007-9.624 0.077-9.555 9.249v62.04c0 1.901 1.893 3.519 3.793 3.519h83.179c1.899 0 3.808-1.565 3.808-3.457l-0.007-16.566-0.367 0.183h-7.631c-6.746 0-12.211-5.464-12.211-12.21s5.465-12.209 12.211-12.209h7.631l0.358-0.184-0.008-20.788c0-1.9-1.885-3.449-3.784-3.449H11.008c-0.275-0.007-0.528-0.023-0.756-0.061H8.374c-0.839 0-1.526-0.688-1.526-1.526C6.848 28.486 7.306 27.899 7.939 27.716zM91.935 58.24h-7.631c-5.061 0-9.158 4.098-9.158 9.157 0 5.059 4.098 9.157 9.158 9.157h7.631l5.738-4.815L97.65 53.547 91.935 58.24zM79.725 67.397c0-2.525 2.053-4.577 4.579-4.577 2.525 0 4.578 2.052 4.578 4.577 0 2.526-2.053 4.579-4.578 4.579C81.777 71.977 79.725 69.924 79.725 67.397z" fill="#e87b1d" data-fill-palette-color="accent"></path></svg></g></svg></g></svg></g></svg></g></svg></g></svg></g><defs></defs></svg><rect width="395.52" height="247.2" fill="none" stroke="none" visibility="hidden"></rect></g></svg></g></svg>